<?xml version="1.0" encoding="utf-8" ?><svg xmlns="http://www.w3.org/2000/svg" xmlns:xlink="http://www.w3.org/1999/xlink" width="9000" height="9000" viewBox="0 0 9000 9000"><path fill="#1E293B" transform="scale(8.78906 8.78906)" d="M0 0L1024 0L1024 1024L0 1024L0 0Z"/><path fill="white" transform="scale(8.78906 8.78906)" d="M544.811 132.115C550.65 132.205 579.363 135.677 582.006 138.706C585.441 142.644 589.721 179.173 590.591 185.45C602.116 188.012 612.487 191.84 623.552 195.83C632.831 187.706 646.809 170.317 656.632 163.959C663.879 165.336 685.98 177.34 692.28 182.557C694.936 184.756 690.83 200.197 689.936 204.573C688.35 212.299 686.957 220.063 685.759 227.859C692.385 231.937 709.005 245.748 714.548 251.205C726.801 245.025 742.518 233.945 755.115 227.734C756.823 226.892 760.105 229.308 761.737 230.415C762.901 218.87 765.429 208.754 771.745 198.939C800.464 154.306 869.942 141.875 911.027 175.286C902.089 182.682 888.473 191.686 878.992 198.616C865.299 208.624 851.317 218.97 837.246 228.347C839.963 238.39 842.842 258.136 846.287 266.479C853.713 271.558 866.18 277.005 874.58 281.467C894.563 267.666 914.256 253.093 934.091 239.063C938.338 236.059 942.343 232.676 946.911 230.166C950.177 239.943 952.41 247.922 952.567 258.423C952.937 283.246 942.34 309.992 925.022 327.746C912.381 340.706 893.893 352.228 875.825 355.303C868.292 356.585 858.954 356.523 851.254 356.661C840.562 369.142 827.693 376.802 817.09 387.277C819.777 395.996 822.981 404.541 825.383 413.348C826.36 416.928 827.36 420.492 828.874 423.887C836.197 424.47 870.005 426.076 873.489 430.596C875.041 432.609 878.528 467.397 877.843 470.334C877.554 471.57 877.132 472.276 876.125 473.063C868.824 478.771 847.675 484.629 838.171 490.087C838.009 490.18 837.85 490.277 837.689 490.372C837.382 496.966 837.583 504.819 837.607 511.512C848.668 511.457 861.519 510.639 872.761 510.188C895.479 509.29 918.19 508.206 940.891 506.936C938.019 513.512 935.271 520.142 932.648 526.822C910.824 582.631 905.56 635.854 923.198 693.755C928.917 712.531 934.031 722.419 941.74 740.075C883.78 736.641 819.846 729.761 762.352 730.032C768.705 743.465 778.446 754.881 784.53 767.898C781.935 772.194 759.713 795.912 755.436 798.042C750.278 798.525 720.786 780.277 714.392 776.412C706.576 784.104 693.505 792.954 684.592 800.403L690.685 826.823C691.625 830.895 695.547 843.185 692.117 845.193C685.9 848.834 663.244 862.415 657.089 862.175C652.102 859.721 627.923 833.828 623.54 828.774C616.118 831.967 608.365 834.498 600.712 837.106C596.733 838.35 592.742 839.56 588.741 840.735C588.287 848.568 587.456 856.714 586.762 864.55C586.383 868.837 586.076 885.12 581.647 886.625C570.837 890.302 557.919 890.605 546.602 892.738C545.6 892.927 543.95 892.52 542.98 892.226C538.118 888.524 526.042 858.964 522.809 851.506C511.664 852.103 495.077 852.204 483.89 851.639C481.406 858.159 468.837 889.957 461.432 892.192C459.109 892.894 425.423 887.355 424.596 885.753C419.967 876.79 418.703 852.043 417.754 841.099C404.486 838.081 394.529 834.165 381.784 829.867C373.727 838.429 361.899 852.41 353.223 859.261C351.505 860.619 350.059 861.708 347.759 861.336C343.741 860.685 315.709 846.061 314.119 843.097C311.874 838.913 319.15 803.647 320.37 796.574C310.853 789.724 301.915 782.713 292.527 775.831C283.456 780.82 264.05 791.954 254.978 794.879C253.005 795.515 250.985 795.9 249.075 794.878C243.075 791.665 238.017 784.352 233.247 779.545C230.654 776.933 227.603 774.709 225.266 771.864C224.395 770.803 223.52 769.524 223.261 768.147C222.385 763.486 240.5 735.313 243.869 729.62C182.912 731.69 123.092 735.671 62.3566 738.738C79.3326 696.649 92.6697 659.081 89.5589 613.126C86.9872 575.134 73.6596 541.855 60.4276 506.524L132.89 509.947C144.992 510.478 157.969 511.366 169.992 511.499C169.995 503.644 169.897 495.789 169.696 487.936C161.381 484.544 152.604 481.914 144.078 479.075C139.768 477.64 134.636 476.461 130.772 474.084C129.286 473.169 128.458 471.904 128.109 470.212C127.467 467.11 130.176 439.835 131.09 435.294C131.35 434.002 131.76 432.166 132.661 431.144C135.762 427.624 172.279 424 179.277 423.213C183.258 411.686 186.86 400.431 190.963 388.762C182.311 379.152 172.58 370.614 163.584 361.349C161.556 359.26 158.64 356.668 158.819 353.531C159.026 349.913 172.898 323.371 175.714 321.582C177.058 320.729 179.328 320.678 180.866 320.728C186.139 320.897 191.735 322.25 196.966 323.082L223.153 327.011C229.783 317.544 237.301 308.107 243.531 299.004C238.208 287.244 225.534 267.228 222.248 257.592C222.626 256.454 223.047 255.289 223.632 254.238C225.931 250.112 241.201 234.894 245.477 231.422C247.074 230.125 248.8 228.858 250.841 228.397C255.534 227.337 286.941 246.445 291.921 249.684C299.946 243.026 311.054 234.568 319.89 229.175C318.266 215.796 314.99 202.422 314.07 188.983C313.878 186.168 313.713 183.254 315.77 181.066C318.635 178.017 345.947 163.776 350.069 164.273C355.868 164.972 377.521 190.183 382.603 195.856C394.619 191.372 404.181 187.676 416.587 184.359C418.123 172.94 420.041 155.403 422.782 144.67C423.397 142.26 424.259 139.361 426.573 138.081C431.162 135.541 459.651 131.609 464.399 133.132C469.423 134.743 483.257 167.833 486.322 174.392C495.54 173.606 511.768 173.89 521.016 174.338C525.877 163.327 531.534 152.382 536.79 141.538C538.638 137.726 540.757 133.745 544.811 132.115Z"/><path fill="#1E293B" transform="scale(8.78906 8.78906)" d="M86.2169 527.076C361.967 542.287 638.346 542.25 914.092 526.964C889.57 590.395 884.978 643.308 909.864 708.395C910.717 710.625 912.866 715.314 911.96 717.363L910.422 717.446C899.904 716.291 887.447 715.66 876.797 714.912L801.672 710.221C662.332 702.189 522.698 700.532 383.208 705.255C319.133 706.973 255.077 709.341 191.05 712.361C157.713 713.975 122.066 715.236 88.8913 718.128C109.4 669.878 114.292 621.922 101.16 570.889C97.2596 555.73 91.7317 541.687 86.2169 527.076Z"/><path fill="white" transform="scale(8.78906 8.78906)" d="M894.389 538.793C896.494 538.581 898.816 538.521 900.946 538.416C897.076 546.159 895.124 552.416 892.766 560.679C881.154 600.162 880.587 642.073 891.127 681.855C892.695 687.932 896.06 700.477 898.963 705.689C811.762 698.867 724.361 694.929 636.9 693.882C460.191 691.257 283.446 695.152 107.024 705.557C105.803 705.591 105.828 705.643 104.686 705.258C104.023 702.383 106.316 698.504 107.155 695.798C109.063 689.647 110.756 682.642 112.264 676.355C123.498 630.382 119.012 581.971 99.522 538.845C127.999 539.63 158.852 541.865 187.575 543.188C229.584 544.852 271.602 546.281 313.626 547.475C450.925 551.297 588.309 550.879 725.582 546.221C762.41 544.978 799.227 543.422 836.028 541.551C854.996 540.666 875.605 540.177 894.389 538.793Z"/><path fill="#1E293B" transform="scale(8.78906 8.78906)" d="M886.875 542.287C889.609 542.07 892.943 542.038 895.735 541.947C874.603 595.984 876.37 647.585 893.784 702.09C876.641 701.355 858.314 699.552 840.899 698.598C790.142 695.753 739.351 693.561 688.538 692.024C549.326 688.715 410.045 689.831 270.905 695.372L185.814 698.767C162.597 699.652 137.694 700.371 114.59 701.893L108.488 702.047C126.91 643.708 127.622 600.108 104.937 542.425C122.691 543.01 140.85 544.265 158.633 545.196C182.255 546.359 205.882 547.402 229.514 548.324C307.686 551.148 385.894 552.854 464.115 553.442C545.813 554.061 627.516 552.993 709.17 550.241C768.427 548.105 827.664 545.454 886.875 542.287Z"/><path fill="white" transform="scale(8.78906 8.78906)" d="M184.301 573.199C218.223 572.428 219.821 595.375 218.398 622.064C217.442 639.989 222.991 654.729 207.336 668.457C214.112 668.505 220.888 668.518 227.664 668.497L227.653 685.68C222.907 685.739 213.227 685.93 208.863 685C200.981 682.877 196.327 678.705 192.08 672.089C156.277 675.252 151.765 654.441 153.662 624.997C153.921 620.977 153.752 613.592 153.596 609.571C152.767 588.182 162.392 574.853 184.301 573.199Z"/><path fill="#1E293B" transform="scale(8.78906 8.78906)" d="M183.007 591.124C184.793 591.054 186.613 591.042 188.369 591.41C190.846 591.928 193.364 593.133 194.687 595.399C196.824 599.06 197.015 643.055 195.455 648.637C194.483 652.117 191.509 653.93 188.503 655.484C186.272 655.647 183.965 655.668 181.846 654.848C179.623 653.988 177.903 652.339 177.046 650.102C174.837 644.334 174.682 600.729 176.962 595.786C178.193 593.119 180.385 592.104 183.007 591.124Z"/><path fill="white" transform="scale(8.78906 8.78906)" d="M346.396 573.201C388.064 570.591 380.404 606.903 381.033 633.687C381.539 655.204 377.519 670.35 353.015 672.545C312.405 674.411 316.966 644.864 317.158 615.998C317.202 609.444 316.578 601.862 317.873 595.504C318.776 591.056 320.765 586.9 323.662 583.406C329.662 576.193 337.527 574.008 346.396 573.201Z"/><path fill="#1E293B" transform="scale(8.78906 8.78906)" d="M347.788 590.601C360.116 590.292 359.432 598.984 359.409 608.568C359.379 620.74 359.604 632.998 359.074 645.151C358.789 651.68 356.571 653.265 350.606 654.381C348.565 654.488 346.192 654.402 344.271 653.666C342.598 653.024 340.53 651.473 339.85 649.76C338.23 645.675 338.22 598.866 339.805 595.845C341.476 592.66 344.54 591.578 347.788 590.601Z"/><path fill="white" transform="scale(8.78906 8.78906)" d="M607.9 574.547L628.293 574.425L628.696 671.887L607.693 671.846L607.609 652.25L607.479 617.297C603.235 626.495 597.593 640.099 594.391 649.56L582.513 649.53C578.791 640.356 572.846 627.39 568.501 618.479L568.447 671.603L547.761 671.705L547.996 574.532L568.089 574.562C574.562 589.55 581.36 604.337 587.985 619.26C595.042 604.546 601.683 589.635 607.9 574.547Z"/><path fill="white" transform="scale(8.78906 8.78906)" d="M667.865 574.231C675.142 574.104 682.421 574.102 689.699 574.227C692.019 585.007 695.849 598.382 698.646 609.249L714.619 672.214C707.125 672.455 699.194 672.363 691.688 672.343C690.656 666.881 689.709 662.524 688.331 657.123L687.735 656.457C683.624 655.997 671.735 656.405 667.066 656.451C665.948 661.489 664.393 666.984 663.082 672.016L642.564 672.213C648.352 650.462 653.955 628.663 659.371 606.816C660.711 601.376 665.913 578.555 667.865 574.231Z"/><path fill="#1E293B" transform="scale(8.78906 8.78906)" d="M677.286 605.421C678.559 607.071 683.829 635.951 684.619 640.005L678.075 640.027L670.138 639.997C672.199 628.407 674.583 616.878 677.286 605.421Z"/><path fill="white" transform="scale(8.78906 8.78906)" d="M236.276 574.491L258.274 574.423L258.283 621.439C258.245 629.879 257.875 638.613 258.438 647.005C259.163 657.824 278.909 657.089 279.561 646.384C280.024 638.772 279.739 631.04 279.711 623.398C279.581 607.097 279.571 590.796 279.682 574.496L298.454 574.463L298.45 591.75L298.44 625.878C298.431 634.515 298.766 643.042 297.366 651.768C293.641 675.612 258.428 678.091 243.649 664.247C233.945 655.157 236.273 634.69 236.286 622.409L236.276 574.491Z"/><path fill="white" transform="scale(8.78906 8.78906)" d="M790.526 574.056L846.208 574.023C846.154 580.006 846.207 585.989 846.368 591.969L812.843 591.999C812.707 598.5 812.819 605.398 812.818 611.929L835.504 611.821L835.5 630.134C827.893 629.829 820.28 629.732 812.668 629.844C812.408 636.944 812.537 644.952 812.489 652.125C812.502 653.516 812.249 652.917 813.066 654.018C820.544 654.728 838.855 654.39 847.245 654.515C846.944 660.481 847.054 666.529 847.082 672.507L790.742 672.47L790.526 574.056Z"/><path fill="white" transform="scale(8.78906 8.78906)" d="M472.589 574.395L527.963 574.372L527.878 591.269C517.082 590.927 504.784 591.12 493.992 591.255L493.991 613.07L517.506 613.062L517.508 629.019L493.999 628.955L493.968 649.364L494.035 654.144L528.62 654.034L528.629 671.94C509.928 671.789 491.227 671.745 472.526 671.809L472.589 574.395Z"/><path fill="white" transform="scale(8.78906 8.78906)" d="M393.411 574.497L456.369 574.42L456.305 591.058L435.446 591.1L435.452 651.25L435.427 672.287L413.38 672.37L413.093 591.194C406.725 591.033 399.85 591.166 393.442 591.177L393.411 574.497Z"/><path fill="white" transform="scale(8.78906 8.78906)" d="M715.089 574.149C735.719 573.831 756.83 574.048 777.496 574.037L777.494 590.996L757.004 590.992L757.018 652.25L757.072 672.453L735.283 672.447L735.203 590.991L714.974 591.021L715.089 574.149Z"/><path fill="#1E293B" transform="scale(8.78906 8.78906)" d="M743.317 322.375C747.234 308.411 762.633 287.315 768.844 272.052C780.355 243.761 770.019 222.936 790.011 198.459C795.634 191.548 802.522 185.771 810.307 181.437C833.968 168.163 864.06 164.102 888.896 176.503C868.447 192.02 845.301 208.572 824.385 223.544C827.962 237.162 832.838 260.072 835.527 274.052C839.145 276.348 844.522 278.622 848.468 280.644C857.416 285.228 867.557 289.935 875.953 295.404C896.531 281.583 917.34 264.734 937.833 251.28C943.477 289.43 911.338 333.448 872.551 338.664C860.169 340.329 849.134 337.775 836.871 336.804C827.752 336.142 818.584 336.792 809.649 338.734C773.95 346.536 760.121 363.049 734.322 385.808C711.701 405.757 689.252 425.9 666.977 446.235C653.546 458.623 636.921 475.118 623.249 486.328C623.253 493.87 623.384 501.818 623.213 509.327C633.936 499.546 643.82 489.031 654.263 479.018C667.25 466.565 680.743 454.576 693.576 441.941C713.36 422.897 734.667 405.547 754.692 386.77C759.741 382.035 765.431 377.758 770.412 372.97C787.882 401.516 799.689 444.427 801.936 477.631C802.748 489.629 802.62 501.87 802.563 513.914L791.556 514.01C784.992 514.082 775.647 514.094 769.216 514.677L768.01 514.553C761.631 515.052 753.664 515.488 747.253 515.479C742.351 515.568 737.451 515.743 732.554 516.002C723.626 516.047 714.698 516.212 705.773 516.497L636.214 518.03C632.267 518.28 626.93 518.308 623.259 518.68C620.968 519.228 613.751 519.05 611 519.036L611.084 293.713C609.215 292.021 606.341 289.522 603.744 289.267C597.093 288.613 589.71 288.792 582.991 288.769C568.587 288.681 554.184 288.723 539.781 288.895L424.85 288.93C412.979 299.387 402.52 311.251 391.159 322.238C387.214 326.053 383.345 329.677 379.591 333.685L379.671 518.722C374.71 518.772 369.748 518.681 364.792 518.452C354.79 517.839 343.316 518.021 333.18 517.853C312.201 517.587 291.228 516.979 270.269 516.03C264.776 515.753 259.281 515.534 253.784 515.371C247.816 515.116 241.851 514.806 235.889 514.439L234.032 514.563C227.637 514.094 219.861 514.402 213.806 513.623L203.921 513.192C203.827 498.377 203.967 485.132 205.754 470.287C214.735 395.668 255.071 324.801 313.45 277.918C378.448 225.72 458.611 202.654 541.28 212.464C608.551 220.448 684.959 259.259 727.274 312.865C724.719 318.148 721.376 323.013 717.36 327.291C707.522 337.973 695.432 347.408 684.618 357.142C664.278 375.64 643.767 393.951 623.089 412.071C622.97 418.281 623.141 424.945 623.199 431.191C633.93 420.094 646.422 409.259 657.927 398.791L696.052 363.936C710.245 351.186 725.882 337.557 739.522 324.338L740.144 324.353C746.553 324.527 752.797 325.371 757.339 330.421C760.303 333.717 761.516 337.88 761.224 342.263C760.853 347.845 758.628 350.126 755.011 353.997C750.361 358.974 744.887 363.268 739.795 367.782C732.515 374.237 725.367 380.888 717.919 387.144C710.8 393.124 703.342 398.69 696.318 404.786C671.391 426.419 647.652 449.572 623.025 471.544L623.122 477.372C648.737 452.507 676.861 428.469 703.347 404.443C707.527 400.652 712.128 397.054 716.402 393.288L744.714 368.356C759.567 355.016 770.556 343.821 790.168 336.86L791.177 335.882C793.145 335.748 795.617 334.822 797.556 334.204C795.1 331.754 783.818 324.378 780.73 322.385C772.681 317.192 765.701 312.364 758.019 306.62C753.187 311.936 748.286 317.188 743.317 322.375Z"/><path fill="#CFA153" transform="scale(8.78906 8.78906)" d="M213.806 513.623C214.336 434.821 239.808 364.845 295.849 308.289C351.4 252.229 426.425 220.086 505.596 220.692C582.133 221.156 655.267 252.382 708.536 307.34C712.416 311.268 716.154 315.333 719.744 319.528C709.559 328.315 699.43 337.167 689.359 346.083C650.048 299.573 589.302 269.639 528.892 264.517C461.562 258.81 394.069 277.193 342.087 321.243C291.881 363.333 260.448 423.641 254.7 488.903C253.93 498.187 254.269 506.458 253.784 515.371C247.816 515.116 241.851 514.806 235.889 514.439L234.032 514.563C227.637 514.094 219.861 514.402 213.806 513.623Z"/><path fill="#1E293B" transform="scale(8.78906 8.78906)" d="M237.749 460.295C239.959 446.679 244.178 432.278 248.793 419.312C267.084 367.541 301 322.728 345.856 291.063C350.141 287.988 352.103 286.746 356.934 284.881C354.741 287.591 351.54 289.86 348.718 291.949C338.67 299.386 328.801 307.094 319.655 315.65C285.976 346.93 261.093 386.498 247.491 430.404C245.011 438.28 240.99 452.456 240.194 460.551C243.951 460.55 246.681 460.578 250.394 460.126C248.474 462.449 246.53 464.752 244.56 467.033C245.728 470.133 246.869 473.244 247.981 476.364C245.274 474.457 241.988 472.003 239.147 470.449C234.798 483.757 236.531 500.604 235.889 514.439L234.032 514.563C233.974 502.591 233.759 490.723 234.93 478.8C235.182 476.232 235.497 473.573 235.676 471.012L227.717 471.682C230.211 469.076 231.667 467.65 233.668 464.644C232.086 461.826 230.385 458.911 228.964 456.027L237.749 460.295Z"/><path fill="#1E293B" transform="scale(8.78906 8.78906)" d="M462.705 240.549C463 242.464 461.913 240.707 461.939 243.529C465.488 245.032 485.479 239.558 489.707 242.634C487.238 245.188 477.116 243.895 473.269 244.987C465.222 247.272 457.034 247.413 448.839 249.127C433.597 252.438 418.628 256.904 404.063 262.485C400.214 263.926 384.998 271.146 382.471 270.262C391.602 260.782 443.696 247.691 457.392 244.992C459.515 242.573 459.793 242.265 462.705 240.549Z"/><path fill="#1E293B" transform="scale(8.78906 8.78906)" d="M526.311 242.102C531.61 241.716 539.373 242.936 544.75 243.764C571.157 247.862 596.784 255.965 620.747 267.792C624.369 269.612 630.621 272.745 633.511 275.317L633.551 276.224C629.178 274.829 618.222 269.004 613.273 266.792C600.897 261.38 588.181 256.783 575.207 253.028C562.699 249.49 550.584 246.823 537.659 245.56C535.129 245.313 528.142 244.616 526.281 243.28L526.311 242.102Z"/><path fill="#1E293B" transform="scale(8.78906 8.78906)" d="M362.928 266.898C363.65 267.566 367.339 272.135 368.201 273.163C371.099 272.19 374.11 271.275 377.032 270.35C375.794 272.934 374.602 275.54 373.458 278.167C375.127 279.822 377.426 281.632 377.771 283.881L377.065 284.488C375.067 284.788 373.745 284.156 371.765 283.539L370.826 283.665C368.706 285.493 367.308 287.858 365.708 290.189C365.028 287.267 364.403 284.799 363.554 281.918C361.675 281.55 359.164 281.421 358.205 279.711C359.088 278.146 361.496 276.985 363.127 275.991C362.883 273.011 362.411 269.788 362.928 266.898Z"/><path fill="#1E293B" transform="scale(8.78906 8.78906)" d="M506.65 229.732C508.769 231.136 509.452 234.479 510.102 236.855C513.1 236.79 516.136 236.783 519.139 236.754C517.192 238.73 514.461 240.999 512.321 242.874C513.505 246.048 513.86 247.7 514.583 250.992C512.128 249.379 510.009 248.017 507.455 246.546C505.477 247.93 502.385 250.691 500.459 252.33C501.192 249.396 502.123 246.257 502.932 243.321C500.875 241.824 497.82 240.28 496.553 238.422L496.87 237.583C499.095 236.678 501.615 236.943 504.088 236.961L506.65 229.732Z"/><path fill="#FAF9F1" transform="scale(8.78906 8.78906)" d="M655.44 290.033C662.472 290.668 700.4 324.078 703.148 330.247C699.26 329.297 684.396 313.876 679.723 309.771C674.721 305.438 669.585 301.264 664.32 297.256C662.348 295.752 656.259 291.771 655.44 290.033Z"/><path fill="#1E293B" transform="scale(8.78906 8.78906)" d="M646.68 276.829C646.933 277.581 647.013 277.583 646.984 278.219C646.737 283.748 648.264 280.494 649.488 283.208L649.026 284.176L647.465 284.48L647.16 285.128C647.887 287.184 648.396 287.711 649.692 289.526L645.331 287.642C643.275 287.964 643.712 290.162 641.324 291.46L641.072 290.589C640.988 285.316 641.562 286.094 637.071 284.971C636.906 283.705 636.941 284.309 637.57 282.895C638.865 282.235 638.489 282.523 639.545 281.533C638.995 279.271 638.031 278.533 636.693 276.677C639.29 278.034 641.145 279.228 643.6 280.811L646.68 276.829Z"/><path fill="#CFA153" transform="scale(8.78906 8.78906)" d="M270.269 516.03C271.24 433.351 300.23 372.958 364.658 321.33C363.992 386.59 364.609 453.092 364.792 518.452C354.79 517.839 343.316 518.021 333.18 517.853C312.201 517.587 291.228 516.979 270.269 516.03Z"/><path fill="#1E293B" transform="scale(8.78906 8.78906)" d="M297.383 467.608C313.549 467.379 332.119 467.829 348.319 468.362C351.586 468.47 355.92 476.913 346.755 479.367C332.474 479.984 311.629 479.527 296.833 479.306C293.483 479.256 288.125 471.335 297.383 467.608Z"/><path fill="#1E293B" transform="scale(8.78906 8.78906)" d="M295.603 446.042L327.891 445.815C333.955 445.781 339.999 445.679 346.089 445.841C349.354 445.927 353.476 447.008 352.874 451.322C352.504 453.977 351.377 455.219 349.285 456.791C343.141 457.764 329.798 457.117 323.023 457.275C314.76 456.927 305.842 457.838 297.641 456.959C290.514 456.195 291.505 450.122 295.603 446.042Z"/><path fill="#1E293B" transform="scale(8.78906 8.78906)" d="M296.812 488.578C312.796 487.928 330.249 489.04 346.348 488.884C352.684 488.823 354.922 496.376 347.949 500.018L313.65 499.943C308.301 499.935 295.655 501.563 292.761 496.706C290.359 492.673 293.651 490.332 296.812 488.578Z"/><path fill="#1E293B" transform="scale(8.78906 8.78906)" d="M299.007 424.716L330.417 424.62C335.785 424.605 341.634 424.378 346.946 424.845C353.88 425.454 354.056 433.286 348.025 436.054C339.998 436.049 301.533 437.131 296.875 435.162C295.62 434.632 294.616 433.355 294.144 432.1C293.577 430.598 293.644 428.994 294.457 427.577C295.501 425.756 297.079 425.171 299.007 424.716Z"/><path fill="#CFA153" transform="scale(8.78906 8.78906)" d="M731.231 414.114C741.465 403.156 753.389 392.345 764.502 382.319C773.669 400.57 780.949 422.238 785.698 442.103C791.257 465.359 791.618 490.201 791.556 514.01C784.992 514.082 775.647 514.094 769.216 514.677L768.01 514.553C761.631 515.052 753.664 515.488 747.253 515.479C748.116 477.96 744.932 449.76 731.231 414.114Z"/><path fill="#1E293B" transform="scale(8.78906 8.78906)" d="M768.01 514.553C767.996 510.871 767.087 472.459 767.375 471.477C770.295 475.631 769.596 487.35 769.506 492.49C769.381 499.658 769.838 507.623 769.216 514.677L768.01 514.553Z"/><path fill="#1E293B" transform="scale(8.78906 8.78906)" d="M762.942 449.328C764.6 451.168 765.609 453.795 766.684 456.092C770.742 455.827 772.467 455.457 776.483 454.572C774.474 457.006 772.03 459.639 769.911 462.025C771.197 464.635 773.294 467.645 774.927 470.146C771.352 469.041 770.282 468.672 766.968 466.932C764.141 467.095 761.002 470.682 758.757 472.752C759.009 469.738 759.366 466.621 759.669 463.601C756.959 462.124 754.831 460.855 752.226 459.196C755.337 458.608 758.444 457.995 761.546 457.357C761.956 454.671 762.421 451.994 762.942 449.328Z"/><path fill="#1E293B" transform="scale(8.78906 8.78906)" d="M747.983 397.782C753.051 400.591 763.395 438.219 764.568 445.843L763.391 445.372C762.151 443.926 758.944 433.856 758.704 431.96C757.703 424.054 747.563 403.916 747.983 397.782Z"/><path fill="#CFA153" transform="scale(8.78906 8.78906)" d="M717.325 425.041C730.55 446.284 732.704 491.174 732.554 516.002C723.626 516.047 714.698 516.212 705.773 516.497L636.214 518.03C633.114 515.725 632.072 514.888 629.432 512.1C630.855 510.087 631.552 509.433 633.325 507.663L631.831 506.008C635.048 502.574 638.472 499.339 642.082 496.321C648.277 497.821 658.159 497.365 664.777 497.417C676.378 497.509 688.122 497.753 699.709 497.356C707.924 497.073 706.043 486.819 699.63 486.302C684.23 485.061 668.674 486.799 653.243 485.109C656.683 481.456 659.285 478.639 663.356 475.68C670.36 477.37 678.782 477.6 686.127 477.587C690.852 477.58 704.952 479.374 705.781 472.463C706.668 465.075 696.335 466.336 691.774 466.056C685.786 465.876 679.558 466.124 673.477 465.953C677.273 462.978 680.533 460.109 684.133 456.926C689.07 457.145 701.465 458.41 704.123 455.322C710.546 447.859 699.752 445.268 696.018 444.476C702.872 438.781 710.861 431.351 717.325 425.041Z"/><path fill="#1E293B" transform="scale(8.78906 8.78906)" d="M633.325 507.663C641.935 504.36 690.903 507.153 702.742 507.41C706.435 507.491 706.073 513.721 705.773 516.497L636.214 518.03C633.114 515.725 632.072 514.888 629.432 512.1C630.855 510.087 631.552 509.433 633.325 507.663Z"/><path fill="white" transform="scale(8.78906 8.78906)" d="M769.348 288.025L771.514 283.312C787.589 292.624 802.525 304.229 818.62 313.361C828.353 318.883 836.737 324.094 846.141 330.235C842.472 330.259 839.364 329.973 835.703 329.663C833.445 327.04 825.404 321.176 822.293 320.086C823.578 322.16 831.94 327.315 834.465 329.479L826.89 329.777L826.328 329.624C823.861 329.938 819.98 330.507 817.747 329.606L817.065 330.178C815.068 330.679 810.938 331.737 809.022 331.259C808.731 331.373 807.854 331.746 807.589 331.791C804.819 332.327 800.521 333.758 798.313 333.067L797.556 334.204C795.1 331.754 783.818 324.378 780.73 322.385C772.681 317.192 765.701 312.364 758.019 306.62L758.588 305.919C759.655 304.76 760.935 302.86 761.884 301.541L762.231 300.5C763.154 299.386 764.582 297.002 765.608 295.592C766.305 294.68 766.082 295.194 766.05 293.941C766.995 292.247 767.744 290.955 768.809 289.337L769.348 288.025Z"/><path fill="white" transform="scale(8.78906 8.78906)" d="M765.608 295.592C776.499 304.243 792.623 313.273 804.231 321.562C807.812 324.12 813.826 327.53 817.065 330.178C815.068 330.679 810.938 331.737 809.022 331.259C808.731 331.373 807.854 331.746 807.589 331.791C804.819 332.327 800.521 333.758 798.313 333.067L797.556 334.204C795.1 331.754 783.818 324.378 780.73 322.385C772.681 317.192 765.701 312.364 758.019 306.62L758.588 305.919C759.655 304.76 760.935 302.86 761.884 301.541L762.231 300.5C763.154 299.386 764.582 297.002 765.608 295.592Z"/><path fill="white" transform="scale(8.78906 8.78906)" d="M761.884 301.541C774.177 311.152 794.315 322.394 807.589 331.791C804.819 332.327 800.521 333.758 798.313 333.067L797.556 334.204C795.1 331.754 783.818 324.378 780.73 322.385C772.681 317.192 765.701 312.364 758.019 306.62L758.588 305.919C759.655 304.76 760.935 302.86 761.884 301.541Z"/><path fill="#FAF9F1" transform="scale(8.78906 8.78906)" d="M758.019 306.62L758.588 305.919C765.444 309.828 793.398 328.242 798.313 333.067L797.556 334.204C795.1 331.754 783.818 324.378 780.73 322.385C772.681 317.192 765.701 312.364 758.019 306.62Z"/><path fill="#FAF9F1" transform="scale(8.78906 8.78906)" d="M762.231 300.5C767.243 302.396 803.159 326.979 809.022 331.259C808.731 331.373 807.854 331.746 807.589 331.791C794.315 322.394 774.177 311.152 761.884 301.541L762.231 300.5Z"/><path fill="white" transform="scale(8.78906 8.78906)" d="M768.809 289.337C789.003 303.394 806.721 314.064 826.328 329.624C823.861 329.938 819.98 330.507 817.747 329.606L817.065 330.178C813.826 327.53 807.812 324.12 804.231 321.562C792.623 313.273 776.499 304.243 765.608 295.592C766.305 294.68 766.082 295.194 766.05 293.941C766.995 292.247 767.744 290.955 768.809 289.337Z"/><path fill="#FAF9F1" transform="scale(8.78906 8.78906)" d="M765.608 295.592C766.305 294.68 766.082 295.194 766.05 293.941C771.764 297.535 815.635 326.673 817.747 329.606L817.065 330.178C813.826 327.53 807.812 324.12 804.231 321.562C792.623 313.273 776.499 304.243 765.608 295.592Z"/><path fill="#FAF9F1" transform="scale(8.78906 8.78906)" d="M769.348 288.025C776.464 291.211 823.605 323.466 826.89 329.777L826.328 329.624C806.721 314.064 789.003 303.394 768.809 289.337L769.348 288.025Z"/><path fill="#CFA153" transform="scale(8.78906 8.78906)" d="M631.831 506.008L633.325 507.663C631.552 509.433 630.855 510.087 629.432 512.1C632.072 514.888 633.114 515.725 636.214 518.03C632.267 518.28 626.93 518.308 623.259 518.68C623.249 518.304 623.246 517.928 623.248 517.552C623.302 513.203 628.575 509.153 631.831 506.008Z"/><path fill="white" transform="scale(8.78906 8.78906)" d="M740.532 332.424C748.693 332.037 757.336 343.845 750.37 351.023C732.925 368.998 712.747 384.256 694.2 400.855C672.38 420.383 650.863 441.043 629.549 461.18L623.085 467.398C622.913 457.778 623.089 447.586 623.102 437.922C639.187 423.353 655.889 408.946 671.779 394.282C687.478 379.577 703.39 365.101 719.511 350.861C726.36 344.777 733.47 338.192 740.532 332.424Z"/><path fill="#CFA153" transform="scale(8.78906 8.78906)" d="M626.208 314.123C642.934 320.538 666.29 342.695 678.772 355.55C671.779 362.541 661.111 371.454 653.532 378.168C644.388 386.37 635.178 394.303 626.148 402.653C626.5 373.682 625.2 342.859 626.208 314.123Z"/><path fill="white" transform="scale(8.78906 8.78906)" d="M781.822 247.79C793.661 256.963 807.406 264.361 819.589 273.079C831.914 281.898 844.988 288.975 858.027 296.639L859.67 296.419L860.259 297.28C864.873 298.962 871.795 301.96 875.157 305.537C877.524 305.16 877.695 304.939 879.787 303.625L880.64 303.087C882.591 302.105 884.381 300.848 886.592 299.753L887.751 299.007L892.091 295.202C898.66 299.647 905.331 303.94 912.098 308.077C910.939 309.386 909.565 311.236 908.043 311.926L907.276 312.935C906.308 314.408 904.524 316.033 902.888 316.71L901.945 316.517L901.308 317.276L901.262 318.292C899.909 319.42 898.869 320.223 897.429 321.237L896.284 322.099L890.365 325.43C886.573 321.73 865.167 308.114 859.475 304.41L780.857 253.857C781.291 251.975 781.548 249.726 781.822 247.79Z"/><path fill="white" transform="scale(8.78906 8.78906)" d="M892.091 295.202C898.66 299.647 905.331 303.94 912.098 308.077C910.939 309.386 909.565 311.236 908.043 311.926L907.276 312.935C906.308 314.408 904.524 316.033 902.888 316.71L901.945 316.517C898.181 313.346 885.277 305.776 880.64 303.087C882.591 302.105 884.381 300.848 886.592 299.753L887.751 299.007L892.091 295.202Z"/><path fill="white" transform="scale(8.78906 8.78906)" d="M892.091 295.202C898.66 299.647 905.331 303.94 912.098 308.077C910.939 309.386 909.565 311.236 908.043 311.926C901.932 307.622 894.151 302.938 887.751 299.007L892.091 295.202Z"/><path fill="#FAF9F1" transform="scale(8.78906 8.78906)" d="M886.592 299.753L887.751 299.007C894.151 302.938 901.932 307.622 908.043 311.926L907.276 312.935C901.776 310.065 891.353 303.417 886.592 299.753Z"/><path fill="white" transform="scale(8.78906 8.78906)" d="M879.787 303.625L880.64 303.087C885.277 305.776 898.181 313.346 901.945 316.517L901.308 317.276L901.262 318.292C899.909 319.42 898.869 320.223 897.429 321.237C890.908 316.696 880.172 311.11 874.311 306.138L875.157 305.537C877.524 305.16 877.695 304.939 879.787 303.625Z"/><path fill="#FAF9F1" transform="scale(8.78906 8.78906)" d="M879.787 303.625L880.64 303.087C885.277 305.776 898.181 313.346 901.945 316.517L901.308 317.276C897.379 315.457 882.888 306.486 879.787 303.625Z"/><path fill="#FAF9F1" transform="scale(8.78906 8.78906)" d="M858.027 296.639L859.67 296.419L860.259 297.28C864.873 298.962 871.795 301.96 875.157 305.537L874.311 306.138C880.172 311.11 890.908 316.696 897.429 321.237L896.284 322.099C889.117 318.21 863.354 301.799 858.027 296.639Z"/><path fill="white" transform="scale(8.78906 8.78906)" d="M860.259 297.28C864.873 298.962 871.795 301.96 875.157 305.537L874.311 306.138C872.006 304.243 863.47 299.401 860.259 297.28Z"/><path fill="white" transform="scale(8.78906 8.78906)" d="M837.168 179.05C839.517 176.161 843.639 177.244 846.347 178.885C848.715 180.549 855.872 184.672 856.916 185.579L858.407 187.087C857.75 189.064 856.385 189.429 854.317 190.927L853.135 191.373C851.569 192.781 850.486 193.698 848.793 194.944C847.475 195.029 848.069 194.779 846.938 195.572C845.598 197.225 844.53 197.709 842.695 198.863L841.768 199.673C840.448 200.614 838.567 202.05 837.246 202.872C836.055 203.495 836.36 203.13 835.669 204.127L831.646 207.266C830.338 207.454 830.676 207.277 829.564 207.851C828.249 209.557 828.16 209.609 826.319 210.782L825.219 210.889L824.815 211.552C823.526 212.704 821.675 213.858 820.211 214.841C813.236 209.939 805.557 205.121 798.372 200.455C799.783 198.953 800.641 197.729 802.514 197.017C802.915 196.59 803.001 196.322 803.294 195.798C804.617 194.253 805.925 193.203 807.676 192.221L808.652 191.333C809.913 189.939 811.731 188.775 813.59 188.363L815.016 187.531C816.211 186.034 817.752 185.393 819.566 184.968L821.04 183.989C822.308 182.495 825.501 181.55 827.405 181.743L828.353 181.086C830.934 179.545 833.087 178.819 835.882 180.02L837.168 179.05Z"/><path fill="white" transform="scale(8.78906 8.78906)" d="M807.676 192.221C814.526 197.461 821.833 202.04 828.663 207.273C829.263 207.733 828.868 207.489 829.564 207.851C828.249 209.557 828.16 209.609 826.319 210.782L825.219 210.889L824.815 211.552C823.526 212.704 821.675 213.858 820.211 214.841C813.236 209.939 805.557 205.121 798.372 200.455C799.783 198.953 800.641 197.729 802.514 197.017C802.915 196.59 803.001 196.322 803.294 195.798C804.617 194.253 805.925 193.203 807.676 192.221Z"/><path fill="white" transform="scale(8.78906 8.78906)" d="M798.372 200.455C799.783 198.953 800.641 197.729 802.514 197.017C807.21 200.478 819.811 208.964 824.815 211.552C823.526 212.704 821.675 213.858 820.211 214.841C813.236 209.939 805.557 205.121 798.372 200.455Z"/><path fill="#FAF9F1" transform="scale(8.78906 8.78906)" d="M802.514 197.017C802.915 196.59 803.001 196.322 803.294 195.798C806.403 197.754 824.019 208.836 826.319 210.782L825.219 210.889L824.815 211.552C819.811 208.964 807.21 200.478 802.514 197.017Z"/><path fill="white" transform="scale(8.78906 8.78906)" d="M837.168 179.05C839.517 176.161 843.639 177.244 846.347 178.885C848.715 180.549 855.872 184.672 856.916 185.579L858.407 187.087C857.75 189.064 856.385 189.429 854.317 190.927L853.135 191.373C851.569 192.781 850.486 193.698 848.793 194.944C847.475 195.029 848.069 194.779 846.938 195.572C844.301 194.024 829.019 183.375 827.405 181.743L828.353 181.086C830.934 179.545 833.087 178.819 835.882 180.02L837.168 179.05Z"/><path fill="white" transform="scale(8.78906 8.78906)" d="M837.168 179.05C839.517 176.161 843.639 177.244 846.347 178.885C848.715 180.549 855.872 184.672 856.916 185.579L858.407 187.087C857.75 189.064 856.385 189.429 854.317 190.927L853.135 191.373C849.569 189.706 839.511 182.525 835.882 180.02L837.168 179.05Z"/><path fill="#FAF9F1" transform="scale(8.78906 8.78906)" d="M837.168 179.05C842.847 183.135 848.704 186.702 854.317 190.927L853.135 191.373C849.569 189.706 839.511 182.525 835.882 180.02L837.168 179.05Z"/><path fill="#FAF9F1" transform="scale(8.78906 8.78906)" d="M828.353 181.086C834.766 185.386 842.726 190.394 848.793 194.944C847.475 195.029 848.069 194.779 846.938 195.572C844.301 194.024 829.019 183.375 827.405 181.743L828.353 181.086Z"/><path fill="white" transform="scale(8.78906 8.78906)" d="M815.016 187.531C822.324 192.791 829.735 197.906 837.246 202.872C836.055 203.495 836.36 203.13 835.669 204.127L831.646 207.266C830.338 207.454 830.676 207.277 829.564 207.851C828.868 207.489 829.263 207.733 828.663 207.273C821.833 202.04 814.526 197.461 807.676 192.221L808.652 191.333C809.913 189.939 811.731 188.775 813.59 188.363L815.016 187.531Z"/><path fill="#FAF9F1" transform="scale(8.78906 8.78906)" d="M807.676 192.221L808.652 191.333C813.029 194.015 828.037 203.964 831.646 207.266C830.338 207.454 830.676 207.277 829.564 207.851C828.868 207.489 829.263 207.733 828.663 207.273C821.833 202.04 814.526 197.461 807.676 192.221Z"/><path fill="#FAF9F1" transform="scale(8.78906 8.78906)" d="M815.016 187.531C822.324 192.791 829.735 197.906 837.246 202.872C836.055 203.495 836.36 203.13 835.669 204.127C828.969 198.671 820.742 194.028 813.59 188.363L815.016 187.531Z"/><path fill="white" transform="scale(8.78906 8.78906)" d="M821.04 183.989C822.308 182.495 825.501 181.55 827.405 181.743C829.019 183.375 844.301 194.024 846.938 195.572C845.598 197.225 844.53 197.709 842.695 198.863C838.41 194.668 826.619 188.223 821.04 183.989Z"/><path fill="#FAF9F1" transform="scale(8.78906 8.78906)" d="M821.04 183.989C826.619 188.223 838.41 194.668 842.695 198.863L841.768 199.673C834.638 194.673 826.817 190.054 819.566 184.968L821.04 183.989Z"/><path fill="white" transform="scale(8.78906 8.78906)" d="M777.092 270.104C789.369 276.98 805.45 288.508 817.602 296.272C836.438 308.305 855.204 319.692 874.139 331.406C871.487 331.91 869.19 331.928 866.511 332.03C864.567 330.726 862.377 329.41 860.38 328.152C861.356 329.733 862.162 330.321 863.521 331.551L863.507 332.155C858.947 331.561 853.398 331.194 848.758 330.785C839.367 323.271 827.189 316.84 817.018 310.357C805.713 303.152 794.5 295.763 783.25 288.465C779.674 286.051 776.053 283.703 772.389 281.424C773.133 279.947 773.871 278.189 774.559 276.661L837.828 317.131C841.758 319.595 853.982 327.926 857.515 329.157L858 328.857C855.056 325.716 834.153 313.014 829.324 309.859C811.479 298.199 792.762 286.78 775.301 274.555L777.092 270.104Z"/><path fill="white" transform="scale(8.78906 8.78906)" d="M780.796 255.938C787.162 259.11 798.851 267.934 807.546 273.486C833.69 290.177 862 307.133 887.379 325.139C887.871 325.488 887.618 325.994 887.506 326.665L885.602 327.848C885.309 327.927 883.553 328.293 883.532 328.278C862.414 314.298 797.239 272.628 779.571 261.23L780.796 255.938Z"/><path fill="white" transform="scale(8.78906 8.78906)" d="M779.346 263.377C785.85 266.715 800.788 277.082 807.462 281.407L860.275 315.13C863.375 317.087 880.852 327.242 881.618 329.103L880.394 329.951L875.615 331.157C869.958 326.639 855.459 318.342 848.293 313.683L777.775 268.112C778.284 266.529 778.808 264.95 779.346 263.377Z"/><path fill="white" transform="scale(8.78906 8.78906)" d="M784.99 223.984L786.889 219.114C798.095 226.424 810.007 234.608 821.239 241.649C821.63 243.941 822.228 246.549 822.072 248.823L821.369 249.389L821.852 250.363C823.616 252.748 823.82 255.415 824.381 258.353C810.713 248.319 797.202 240.103 783.47 230.354C783.902 228.412 784.181 227.499 784.877 225.632L785.49 225.335L784.99 223.984Z"/><path fill="white" transform="scale(8.78906 8.78906)" d="M784.877 225.632C797.088 233.778 809.823 242.021 821.852 250.363C823.616 252.748 823.82 255.415 824.381 258.353C810.713 248.319 797.202 240.103 783.47 230.354C783.902 228.412 784.181 227.499 784.877 225.632Z"/><path fill="#FAF9F1" transform="scale(8.78906 8.78906)" d="M784.877 225.632L785.49 225.335L784.99 223.984C787.7 225.354 790.07 226.972 792.6 228.63C802.587 235.173 812.521 241.649 822.072 248.823L821.369 249.389L821.852 250.363C809.823 242.021 797.088 233.778 784.877 225.632Z"/><path fill="white" transform="scale(8.78906 8.78906)" d="M911.298 282.392C911.6 280.545 912.987 280.135 914.942 278.628C918.912 281.199 921.91 282.942 926.086 285.169C925.642 286.368 924.849 288.336 924.506 289.496C923.51 289.645 923.89 289.438 923.291 289.95C923.157 291.596 921.588 294.55 920.553 295.673L919.98 296.97C919.052 298.421 918.045 300.275 916.729 301.283L916.132 302.219C915.619 303.96 914.181 305.464 913.02 306.92C906.617 302.579 900.37 298.817 893.969 294.285C895.747 292.896 896.816 291.701 898.995 291.534C899.445 290.952 899.222 291.328 899.51 290.329L904.187 286.566L905.105 286.688L905.586 285.945C906.004 285.569 906.427 285.198 906.855 284.833C908.537 283.413 908.979 282.745 910.701 282.905L911.298 282.392Z"/><path fill="white" transform="scale(8.78906 8.78906)" d="M911.298 282.392C911.6 280.545 912.987 280.135 914.942 278.628C918.912 281.199 921.91 282.942 926.086 285.169C925.642 286.368 924.849 288.336 924.506 289.496C923.51 289.645 923.89 289.438 923.291 289.95C923.157 291.596 921.588 294.55 920.553 295.673C915.98 292.418 909.568 289.165 905.586 285.945C906.004 285.569 906.427 285.198 906.855 284.833C908.537 283.413 908.979 282.745 910.701 282.905L911.298 282.392Z"/><path fill="white" transform="scale(8.78906 8.78906)" d="M911.298 282.392C911.6 280.545 912.987 280.135 914.942 278.628C918.912 281.199 921.91 282.942 926.086 285.169C925.642 286.368 924.849 288.336 924.506 289.496C923.51 289.645 923.89 289.438 923.291 289.95C920.202 289.531 913.022 285.177 910.701 282.905L911.298 282.392Z"/><path fill="#FAF9F1" transform="scale(8.78906 8.78906)" d="M911.298 282.392C915.309 284.622 920.415 287.647 924.506 289.496C923.51 289.645 923.89 289.438 923.291 289.95C920.202 289.531 913.022 285.177 910.701 282.905L911.298 282.392Z"/><path fill="white" transform="scale(8.78906 8.78906)" d="M893.969 294.285C895.747 292.896 896.816 291.701 898.995 291.534C901.53 293.758 912.844 300.728 916.132 302.219C915.619 303.96 914.181 305.464 913.02 306.92C906.617 302.579 900.37 298.817 893.969 294.285Z"/><path fill="#FAF9F1" transform="scale(8.78906 8.78906)" d="M898.995 291.534C899.445 290.952 899.222 291.328 899.51 290.329C904.556 293.451 912.244 297.821 916.729 301.283L916.132 302.219C912.844 300.728 901.53 293.758 898.995 291.534Z"/><path fill="#FAF9F1" transform="scale(8.78906 8.78906)" d="M904.187 286.566L905.105 286.688L905.586 285.945C909.568 289.165 915.98 292.418 920.553 295.673L919.98 296.97C915.401 293.364 908.488 290.769 904.187 286.566Z"/><path fill="white" transform="scale(8.78906 8.78906)" d="M782.565 240.555C783.781 241.103 793.27 247.448 795.023 248.633C804.986 255.369 815.8 261.615 825.235 269.011C827.25 270.591 826.986 273.464 827.111 276.054C823.845 273.31 817.646 269.671 814.009 267.217C803.578 260.178 791.967 253.534 782.077 245.823L782.565 240.555Z"/><path fill="white" transform="scale(8.78906 8.78906)" d="M783.191 232.248C790.81 237.682 819.779 255.425 824.054 260.932C825.448 262.729 825.64 264.335 825.42 266.546C822.863 264.96 820.114 263.111 817.631 261.394C806.199 253.485 793.596 246.428 782.478 238.163C782.574 236.45 782.966 234.009 783.191 232.248Z"/><path fill="white" transform="scale(8.78906 8.78906)" d="M789.842 212.885C799.541 219.472 809.245 225.452 819.004 231.846C819.4 233.507 820.422 236.709 819.965 238.149L819.194 238.077C808.573 231.163 797.991 224.188 787.449 217.154L789.842 212.885Z"/><path fill="white" transform="scale(8.78906 8.78906)" d="M793.54 206.846C797.822 210.173 802.307 212.98 806.792 215.995C810.54 218.515 819.927 222.42 817.455 228.28L816.65 228.029C807.779 222.794 799.334 216.867 790.573 211.42L793.54 206.846Z"/><path fill="white" transform="scale(8.78906 8.78906)" d="M855.5 177.235L856.202 176.354C860.75 175.468 866.331 176.86 870.835 177.94C869.143 179.391 867.947 180.776 865.831 181.183C864.597 180.862 864.298 180.795 863.149 180.267L862.864 181.064L864.391 182.221C863.764 185.351 860.598 186.822 857.678 184.796L856.916 185.579C855.872 184.672 848.715 180.549 846.347 178.885L846.417 176.615C849.976 175.923 852.311 175.323 855.5 177.235Z"/><path fill="white" transform="scale(8.78906 8.78906)" d="M856.202 176.354C860.75 175.468 866.331 176.86 870.835 177.94C869.143 179.391 867.947 180.776 865.831 181.183C864.597 180.862 864.298 180.795 863.149 180.267C861.203 178.828 858.84 178.755 856.202 176.354Z"/><path fill="#FAF9F1" transform="scale(8.78906 8.78906)" d="M846.347 178.885L846.417 176.615C849.071 179.344 854.39 182.352 857.678 184.796L856.916 185.579C855.872 184.672 848.715 180.549 846.347 178.885Z"/><path fill="#FAF9F1" transform="scale(8.78906 8.78906)" d="M855.5 177.235L856.202 176.354C858.84 178.755 861.203 178.828 863.149 180.267L862.864 181.064C860.352 180.289 857.461 179.013 855.5 177.235Z"/><path fill="white" transform="scale(8.78906 8.78906)" d="M797.441 201.54C801.744 205.327 815.627 212.232 817.405 216.724C817.156 218.072 817.225 218.356 816.519 219.496L815.327 219.368C808.115 215.456 801.404 209.765 794.127 205.794L797.441 201.54Z"/><path fill="white" transform="scale(8.78906 8.78906)" d="M926.331 270.155C927.811 271.233 929.046 271.817 929.595 273.494C929.566 275.306 929.393 276.007 929.047 277.743L928.542 278.911L926.927 283.715C923.31 281.842 919.725 279.908 916.174 277.912C917.863 276.645 919.538 275.358 921.197 274.052L922.232 273.571L926.331 270.155Z"/><path fill="white" transform="scale(8.78906 8.78906)" d="M926.331 270.155C927.811 271.233 929.046 271.817 929.595 273.494C929.566 275.306 929.393 276.007 929.047 277.743C926.173 276.294 924.745 275.682 922.232 273.571L926.331 270.155Z"/><path fill="#FAF9F1" transform="scale(8.78906 8.78906)" d="M921.197 274.052L922.232 273.571C924.745 275.682 926.173 276.294 929.047 277.743L928.542 278.911C925.7 277.896 923.383 276.056 921.197 274.052Z"/><path fill="#CFA153" transform="scale(8.78906 8.78906)" d="M437.012 304.601C453.97 304.16 472.291 304.44 489.308 304.422L594.982 304.56L594.514 519.539L552.75 519.978C500.393 520.15 448.036 519.799 395.686 518.927C395.217 501.131 395.826 480.755 395.829 462.745L395.799 344.094L436.877 344.154C436.82 330.969 436.865 317.785 437.012 304.601Z"/><path fill="white" transform="scale(8.78906 8.78906)" d="M426.428 352.596C474.194 353.017 521.963 353.127 569.73 352.927L569.761 361.101L569.532 362.208C566.941 363.268 440.227 362.567 426.43 362.603L426.428 352.596Z"/><path fill="white" transform="scale(8.78906 8.78906)" d="M426.643 482.024L569.513 482.125L569.471 491.583C522.162 492.086 474.001 491.589 426.658 491.503L426.643 482.024Z"/><path fill="white" transform="scale(8.78906 8.78906)" d="M426.775 417.196C445.49 417.554 464.906 417.298 483.691 417.273L569.889 417.139L569.882 426.732L426.71 426.939C426.695 423.71 426.751 420.429 426.775 417.196Z"/><path fill="white" transform="scale(8.78906 8.78906)" d="M426.743 449.457L569.32 449.621L569.316 458.899L426.731 458.994L426.743 449.457Z"/><path fill="white" transform="scale(8.78906 8.78906)" d="M426.633 384.885C473.576 384.146 522.459 384.978 569.632 384.909L569.583 394.102L426.616 394.261L426.633 384.885Z"/><path fill="#CFA153" transform="scale(8.78906 8.78906)" d="M397.337 723.34C414.183 722.316 436.256 722.7 453.556 722.58C488.735 722.29 523.915 722.217 559.095 722.363C572.466 722.381 585.838 722.471 599.208 722.631C601.974 722.679 611.942 722.75 613.984 723.256C624.215 723.599 634.442 724.029 644.665 724.547C661.663 724.549 678.958 726.238 695.991 726.389C698.155 726.409 701.374 726.443 703.426 726.78L715.243 727.895C710.653 733.132 705.771 738.106 700.618 742.791C681.184 760.414 664.532 770.844 641.112 782.425C592.152 806.907 537.652 818.191 482.996 815.161C414.725 811.702 338.224 778.008 292.249 727.064L303.038 726.365C305.176 726.019 310.839 725.951 313.352 725.83C319.792 725.518 326.472 725.001 332.884 724.968L336.121 724.647C344.257 725.174 356.342 724.096 365.35 724.419C375.941 723.903 386.824 723.989 397.337 723.34Z"/><path fill="#1E293B" transform="scale(8.78906 8.78906)" d="M397.337 723.34C414.183 722.316 436.256 722.7 453.556 722.58C488.735 722.29 523.915 722.217 559.095 722.363C572.466 722.381 585.838 722.471 599.208 722.631C601.974 722.679 611.942 722.75 613.984 723.256C624.215 723.599 634.442 724.029 644.665 724.547C640.029 728.079 631.285 732.421 626.01 735.266C597.016 750.906 569.412 759.357 536.752 764.02C486.402 771.649 434.933 762.967 389.871 739.244C382.217 735.181 372.28 729.612 365.35 724.419C375.941 723.903 386.824 723.989 397.337 723.34Z"/><path fill="#CFA153" transform="scale(8.78906 8.78906)" d="M397.337 723.34C414.183 722.316 436.256 722.7 453.556 722.58C488.735 722.29 523.915 722.217 559.095 722.363C572.466 722.381 585.838 722.471 599.208 722.631C601.974 722.679 611.942 722.75 613.984 723.256C610.491 725.389 603.469 728.168 599.53 729.726C578.63 738.075 556.836 743.985 534.581 747.338C497.166 753.265 458.857 749.519 423.299 736.454C414.85 733.258 404.556 728.672 397.337 723.34Z"/><path fill="#1E293B" transform="scale(8.78906 8.78906)" d="M292.249 727.064L303.038 726.365C346.825 768.952 403.331 796.06 463.95 803.56C534.012 811.598 616.784 794.242 674.388 752.422C681.167 747.531 687.581 742.154 693.581 736.334C696.47 733.577 700.563 729.222 703.426 726.78L715.243 727.895C710.653 733.132 705.771 738.106 700.618 742.791C681.184 760.414 664.532 770.844 641.112 782.425C592.152 806.907 537.652 818.191 482.996 815.161C414.725 811.702 338.224 778.008 292.249 727.064Z"/><path fill="#1E293B" transform="scale(8.78906 8.78906)" d="M332.884 724.968L336.121 724.647C344.781 732.652 356.872 740.748 366.931 746.8C410.461 772.988 444.845 782.175 494.594 784.567C504.671 776.705 501.257 772.067 511.889 782.942C521.963 783.668 536.264 782.053 546.314 780.578C592.792 773.755 627.758 755.932 667.359 732.13C662.378 736.956 650.691 744.285 644.689 747.884C605.315 771.403 560.512 784.301 514.66 785.314C511.354 789.764 508.485 793.441 504.602 797.396C500.801 794.153 497.981 790.468 494.886 786.595C447.47 786.501 408.352 774.422 367.384 750.244C355.84 743.43 342.481 734.243 332.884 724.968Z"/><path fill="#1E293B" transform="scale(8.78906 8.78906)" d="M420.75 316.393L421.286 316.519C422.667 318.163 422.073 325.242 422.012 327.905L404.48 327.903C403.971 327.822 404.227 327.931 403.774 327.46C405.541 325.744 411.502 319.548 413.566 318.978C417.032 318.02 417.034 318.822 420.75 316.393Z"/><path fill="#FAF9F1" transform="scale(8.78906 8.78906)" d="M774.62 323.431C779.634 327.244 786.631 331.956 791.177 335.882L790.168 336.86C786.697 332.942 781.043 331.439 774.62 323.431Z"/></svg>